<svg xmlns="http://www.w3.org/2000/svg" version="1.1" xmlns:xlink="http://www.w3.org/1999/xlink" xmlns:svgjs="http://svgjs.dev/svgjs" width="1000" height="999" viewBox="0 0 1000 999"><g transform="matrix(1,0,0,1,-0.215743440233382,-0.21552769679306039)"><svg viewBox="0 0 343 343" data-background-color="#ffffff" preserveAspectRatio="xMidYMid meet" height="999" width="1000" xmlns="http://www.w3.org/2000/svg" xmlns:xlink="http://www.w3.org/1999/xlink"><g id="tight-bounds" transform="matrix(1,0,0,1,0.0740000000000407,0.07400000000001228)"><svg viewBox="0 0 342.85155851775386 342.85155851775386" height="342.85155851775386" width="342.85155851775386"><g><svg></svg></g><g><svg viewBox="0 0 342.85155851775386 342.85155851775386" height="342.85155851775386" width="342.85155851775386"><g><path d="M0 171.426c0-94.676 76.75-171.426 171.426-171.426 94.676 0 171.426 76.75 171.426 171.426 0 94.676-76.75 171.426-171.426 171.426-94.676 0-171.426-76.75-171.426-171.426zM171.426 332.22c88.804 0 160.794-71.99 160.794-160.794 0-88.804-71.99-160.794-160.794-160.794-88.804 0-160.794 71.99-160.794 160.794 0 88.804 71.99 160.794 160.794 160.794z" data-fill-palette-color="tertiary" fill="#000000" stroke="transparent"></path><ellipse rx="164.56874808852186" ry="164.56874808852186" cx="171.42577925887693" cy="171.42577925887693" fill="#000000" stroke="transparent" stroke-width="0" fill-opacity="1" data-fill-palette-color="tertiary"></ellipse></g><g transform="matrix(1,0,0,1,64.84655864529837,112.47745555816579)"><svg viewBox="0 0 213.1584412271571 117.89664740142227" height="117.89664740142227" width="213.1584412271571"><g><svg viewBox="0 0 213.1584412271571 117.89664740142227" height="117.89664740142227" width="213.1584412271571"><g><svg viewBox="0 0 213.1584412271571 117.89664740142227" height="117.89664740142227" width="213.1584412271571"><g><svg viewBox="0 0 213.1584412271571 117.89664740142227" height="117.89664740142227" width="213.1584412271571"><g id="textblocktransform"><svg viewBox="0 0 213.1584412271571 117.89664740142227" height="117.89664740142227" width="213.1584412271571" id="textblock"><g><svg viewBox="0 0 213.1584412271571 117.89664740142227" height="117.89664740142227" width="213.1584412271571"><g transform="matrix(1,0,0,1,0,0)"><svg width="213.1584412271571" viewBox="2.299999952316284 -35.599998474121094 65.44999694824219 36.19999694824219" height="117.89664740142227" data-palette-color="#ffffff"><path d="M18.75 0.6L18.75 0.6Q13.8 0.6 10.1-1.65 6.4-3.9 4.35-7.95 2.3-12 2.3-17.4L2.3-17.4Q2.3-22.75 4.4-26.85 6.5-30.95 10.38-33.27 14.25-35.6 19.55-35.6L19.55-35.6Q25.55-35.6 29.55-32.7 33.55-29.8 34.75-24.7L34.75-24.7 28.75-24.7Q27.95-27.5 25.6-29.1 23.25-30.7 19.55-30.7L19.55-30.7Q14.05-30.7 10.9-27.15 7.75-23.6 7.75-17.35L7.75-17.35Q7.75-11.1 10.85-7.6 13.95-4.1 19.1-4.1L19.1-4.1Q24.3-4.1 26.93-7.05 29.55-10 30-14.9L30-14.9 20.5-14.9 20.5-19 35.35-19 35.35 0 30.5 0 30.05-5.15Q28.3-2.4 25.65-0.9 23 0.6 18.75 0.6ZM47.1 0L41.8 0 41.8-35 47.1-35 47.1-20 60.9-35 67.45-35 54.5-21.05 67.75 0 61.3 0 50.7-17 47.1-13.1 47.1 0Z" opacity="1" transform="matrix(1,0,0,1,0,0)" fill="#ffffff" class="wordmark-text-0" data-fill-palette-color="quaternary" id="text-0"></path></svg></g></svg></g></svg></g></svg></g><g></g></svg></g></svg></g></svg></g></svg></g><defs></defs></svg><rect width="342.85155851775386" height="342.85155851775386" fill="none" stroke="none" visibility="hidden"></rect></g></svg></g></svg>